<?xml version="1.0" standalone="no"?><!DOCTYPE svg PUBLIC "-//W3C//DTD SVG 1.1//EN" "http://www.w3.org/Graphics/SVG/1.1/DTD/svg11.dtd"><svg t="1533309310054" class="icon" style="" viewBox="0 0 1024 1024" version="1.1" xmlns="http://www.w3.org/2000/svg" p-id="9977" xmlns:xlink="http://www.w3.org/1999/xlink" width="64" height="64"><defs><style type="text/css"></style></defs><path d="M512 0C229.216 0 0 229.216 0 512c0 282.768 229.216 512 512 512 282.752 0 512-229.232 512-512C1024 229.216 794.752 0 512 0zM512 992C246.896 992 32 777.088 32 512 32 246.896 246.896 32 512 32c265.056 0 480 214.896 480 480C992 777.088 777.056 992 512 992z" p-id="9978"></path><path d="M742.624 225.376C736.368 219.12 728.192 216 720 216L304 216c-8.192 0-16.384 3.12-22.624 9.376C275.12 231.616 272 239.808 272 248l0 528c0 8.192 3.12 16.368 9.376 22.624C287.616 804.88 295.808 808 304 808l416 0c8.192 0 16.368-3.12 22.624-9.376S752 784.192 752 776l0-528C752 239.808 748.88 231.616 742.624 225.376zM720 760c0 4.096-1.568 8.192-4.688 11.312S708.096 776 704 776L320 776c-4.096 0-8.192-1.568-11.312-4.688S304 764.096 304 760l0-496c0-4.096 1.568-8.192 4.688-11.312S315.904 248 320 248l384 0c4.096 0 8.192 1.568 11.312 4.688S720 259.904 720 264L720 760z" p-id="9979"></path><path d="M659.008 290 364.992 290c-8.192 0-16.384 3.12-22.624 9.376-6.256 6.24-9.376 14.432-9.376 22.624l0 282.432c0 8.192 3.12 16.368 9.376 22.624 6.24 6.256 14.432 9.376 22.624 9.376l294 0c8.192 0 16.368-3.12 22.624-9.376s9.376-14.432 9.376-22.624L690.992 322c0-8.192-3.12-16.384-9.376-22.624C675.376 293.12 667.184 290 659.008 290zM659.008 588.432c0 4.096-1.568 8.192-4.688 11.312s-7.216 4.688-11.312 4.688L380.992 604.432c-4.096 0-8.192-1.568-11.312-4.688s-4.688-7.216-4.688-11.312L364.992 338c0-4.096 1.568-8.192 4.688-11.312s7.216-4.688 11.312-4.688l262 0c4.096 0 8.192 1.568 11.312 4.688s4.688 7.216 4.688 11.312L658.992 588.432z" p-id="9980"></path><path d="M512 659.664c-26.464 0-48 21.536-48 48s21.536 48 48 48 48-21.536 48-48S538.464 659.664 512 659.664zM512 723.664c-8.816 0-16-7.168-16-16s7.184-16 16-16c8.832 0 16 7.168 16 16S520.832 723.664 512 723.664z" p-id="9981"></path></svg>