<?xml version="1.0" standalone="no"?><!DOCTYPE svg PUBLIC "-//W3C//DTD SVG 1.1//EN" "http://www.w3.org/Graphics/SVG/1.1/DTD/svg11.dtd"><svg t="1533309226668" class="icon" style="" viewBox="0 0 1024 1024" version="1.1" xmlns="http://www.w3.org/2000/svg" p-id="2413" xmlns:xlink="http://www.w3.org/1999/xlink" width="400" height="400"><defs><style type="text/css"></style></defs><path d="M510.511372 1024C229.024054 1024 0.023605 794.999552 0.023605 513.512234S229.012285 2.977394 510.511372 2.977394s510.487766 229.023985 510.487766 510.53484S792.033995 1024 510.511372 1024z m0-988.718467c-263.611185 0-478.171859 214.52537-478.17186 478.218932s214.501833 478.183628 478.17186 478.183628S988.683231 777.170492 988.683231 513.512234 774.16963 35.305069 510.511372 35.305069z" fill="" p-id="2414"></path><path d="M762.613103 289.442727H258.456713a56.017377 56.017377 0 0 0-56.017377 56.017377v336.068955a56.017377 56.017377 0 0 0 56.017377 56.017377H762.613103a56.017377 56.017377 0 0 0 56.017377-56.017377V345.448335a56.017377 56.017377 0 0 0-56.017377-56.005608z m-504.15639 27.99692H762.613103a27.573259 27.573259 0 0 1 9.344075 1.71818l-242.428142 242.428143a26.808316 26.808316 0 0 1-37.964718 0l-242.428143-242.428143a27.490881 27.490881 0 0 1 9.320538-1.71818z m-28.008688 364.089412V345.448335a28.432349 28.432349 0 0 1 0.494271-4.872099l172.900693 172.912461-172.900693 172.900693a28.432349 28.432349 0 0 1-0.494271-4.860331zM762.613103 709.525979H258.456713a27.78509 27.78509 0 0 1-9.320538-1.706412L423.684438 533.294841 471.734637 581.356809a54.805236 54.805236 0 0 0 77.565237 0l48.085505-48.085505 174.536494 174.548263a28.020457 28.020457 0 0 1-9.30877 1.706412z m28.008689-28.008688a28.432349 28.432349 0 0 1-0.494271 4.872099L617.179754 513.488697l172.900693-172.900693a28.432349 28.432349 0 0 1 0.494271 4.8721z" fill="" p-id="2415"></path></svg>