<?xml version="1.0" standalone="no"?><!DOCTYPE svg PUBLIC "-//W3C//DTD SVG 1.1//EN" "http://www.w3.org/Graphics/SVG/1.1/DTD/svg11.dtd"><svg t="1533309278659" class="icon" style="" viewBox="0 0 1038 1024" version="1.1" xmlns="http://www.w3.org/2000/svg" p-id="7629" xmlns:xlink="http://www.w3.org/1999/xlink" width="400.875" height="400"><defs><style type="text/css"></style></defs><path d="M7.333333 512c0 240.059733 165.0688 441.856 388.266667 497.083733 10.24 2.628267 21.674667-6.485333 21.333333-17.066666V768c0-11.3664 6.724267-22.254933 19.217067-28.808533 12.629333-6.314667 9.557333-29.218133-4.266667-31.982934-64.853333-12.970667-120.149333-39.0144-158.958933-73.6256C234.183466 598.9376 212.133333 556.8512 212.133333 512c0-31.232 11.1616-61.201067 30.9248-88.541867a16.725333 16.725333 0 0 0 3.208533-9.557333V250.641067l135.509334 72.533333a17.271467 17.271467 0 0 0 13.824 1.024C433.5904 312.9344 474.891733 307.2 519.333333 307.2s85.742933 5.7344 123.733333 17.066667a17.5104 17.5104 0 0 0 13.858134-1.024L792.4 250.641067v163.157333c0.068267 3.413333 1.194667 6.826667 3.208533 9.6256 19.797333 27.306667 30.9248 57.344 30.9248 88.541867 0 44.885333-22.016 86.971733-60.757333 121.617066-38.843733 34.6112-94.208 60.6208-158.958934 73.591467-13.858133 2.730667-16.896 25.6-4.266666 31.9488 12.458667 6.5536 19.182933 17.408 19.182933 28.808533v224.017067c-0.341333 10.581333 11.127467 19.694933 21.333333 17.066667C866.298666 953.856 1031.333333 752.0256 1031.333333 512c0-282.555733-229.444267-512-512-512C236.7776 0 7.333333 229.444267 7.333333 512zM519.333333 34.133333c264.123733 0 477.866667 213.742933 477.866667 477.866667 0 216.064-144.725333 394.1376-341.333334 453.290667V768c0-13.653333-5.256533-25.8048-12.8-36.283733 56.763733-15.598933 108.612267-40.106667 146.090667-73.591467C833.5648 618.632533 860.666666 567.978667 860.666666 512c0-36.9664-13.448533-70.792533-34.133333-101.376V221.866667c0.1024-11.946667-15.223467-20.923733-25.6-14.916267L644.1248 291.157333C605.2128 280.576 563.570133 273.066667 519.333333 273.066667c-44.202667 0-85.9136 7.441067-124.791467 18.090666L237.733333 206.984533c-10.376533-6.007467-25.7024 2.9696-25.6 14.916267v188.757333c-20.6848 30.583467-34.133333 64.4096-34.133333 101.376 0 55.978667 27.136 106.5984 71.4752 146.090667 37.546667 33.518933 89.429333 58.026667 146.090666 73.659733-7.509333 10.4448-12.765867 22.528-12.765866 36.2496v57.617067c-37.205333 13.858133-61.678933 16.827733-76.8 13.858133-16.315733-3.208533-25.122133-11.605333-35.157334-25.6-20.206933-28.091733-40.0384-79.872-105.642666-96.802133-22.3232-5.973333-29.866667 27.306667-8.533334 33.109333 51.473067 13.312 61.610667 49.425067 86.357334 83.968 12.424533 17.237333 30.242133 33.211733 56.593066 38.4 21.947733 4.3008 48.5376 1.024 83.182934-10.683733v103.424C186.260266 906.171733 41.466666 728.064 41.466666 512 41.466666 247.876267 255.2096 34.133333 519.333333 34.133333z" fill="" p-id="7630"></path></svg>