<?xml version="1.0" standalone="no"?><!DOCTYPE svg PUBLIC "-//W3C//DTD SVG 1.1//EN" "http://www.w3.org/Graphics/SVG/1.1/DTD/svg11.dtd"><svg t="1533309373120" class="icon" style="" viewBox="0 0 1024 1024" version="1.1" xmlns="http://www.w3.org/2000/svg" p-id="15193" xmlns:xlink="http://www.w3.org/1999/xlink" width="64" height="64"><defs><style type="text/css"></style></defs><path d="M512 1024C229.226667 1024 0 794.773333 0 512S229.226667 0 512 0s512 229.226667 512 512-229.226667 512-512 512z m0-46.549333c257.066667 0 465.450667-208.384 465.450667-465.450667S769.066667 46.549333 512 46.549333 46.549333 254.933333 46.549333 512 254.933333 977.450667 512 977.450667zM342.698667 814.933333a133.248 133.248 0 0 1-94.528-39.104 133.76 133.76 0 0 1 0-189.013333l127.786666-127.786667a133.76 133.76 0 0 1 189.013334 0 21.845333 21.845333 0 0 1-30.869334 30.869334 90.090667 90.090667 0 0 0-127.274666 0l-127.786667 127.786666a90.090667 90.090667 0 0 0 0 127.274667 90.090667 90.090667 0 0 0 127.274667 0l107.818666-107.818667a21.845333 21.845333 0 0 1 30.869334 30.869334l-107.818667 107.818666a133.248 133.248 0 0 1-94.506667 39.104v-8.533333 8.533333z m210.858666-210.858666a133.248 133.248 0 0 1-94.528-39.104 21.845333 21.845333 0 0 1 30.869334-30.869334 90.069333 90.069333 0 0 0 127.274666 0l127.786667-127.786666a90.090667 90.090667 0 0 0 0-127.274667 90.069333 90.069333 0 0 0-127.274667 0L509.866667 386.858667a21.845333 21.845333 0 0 1-30.890667-30.869334l107.84-107.818666a133.76 133.76 0 0 1 189.013333 0c52.117333 52.138667 52.117333 136.938667 0 189.013333l-127.786666 127.786667a133.248 133.248 0 0 1-94.506667 39.104v-8.533334l0.021333 8.533334z" p-id="15194"></path></svg>