<?xml version="1.0" standalone="no"?><!DOCTYPE svg PUBLIC "-//W3C//DTD SVG 1.1//EN" "http://www.w3.org/Graphics/SVG/1.1/DTD/svg11.dtd"><svg t="1534047503537" class="icon" style="" viewBox="0 0 1024 1024" version="1.1" xmlns="http://www.w3.org/2000/svg" p-id="12912" xmlns:xlink="http://www.w3.org/1999/xlink" width="32" height="32"><defs><style type="text/css"></style></defs><path d="M859.58613333 164.44053333C766.74346667 71.62666667 643.34506667 20.48 512.02773333 20.48S257.2832 71.6256 164.44053333 164.46826667c-191.63733333 191.63733333-191.63733333 503.4528 0 695.0912C257.2832 952.37333333 380.68266667 1003.52 511.97226667 1003.52c131.31733333 0 254.7168-51.11786667 347.55946666-143.93386667 191.6384-191.66506667 191.66613333-503.5072 0.0544-695.1456zM830.56 830.58666667C745.472 915.67466667 632.34133333 962.56 511.97226667 962.56c-120.34026667 0-233.472-46.85866667-318.56-131.94666667-175.66293333-175.66293333-175.66293333-461.48266667 0-637.1456C278.50133333 108.3264 391.68746667 61.44 512.0288 61.44S745.52533333 108.29866667 830.61333333 193.38666667c175.664 175.69066667 175.63626667 461.536-0.0544 637.2z m-65.18186667-572.04693334c-54.31253333-54.64106667-142.97706667-54.96853333-197.61813333-0.656l-121.51466667 120.7232c-54.66773333 54.31253333-54.96853333 142.97813333-0.65493333 197.64586667l6.63466667 6.69013333 29.05493333-28.89066666-6.63466667-6.69013334c-38.3936-38.63893333-38.176-101.30773333 0.46293334-139.70133333l121.51466666-120.72213333c38.6944-38.3936 101.33546667-38.17493333 139.70133334 0.464l6.63466666 6.6624c38.36693333 38.66666667 38.14826667 101.30773333-0.46293333 139.70133333l-62.368 61.9584 28.86186667 29.05493333 62.368-61.95946666c54.6688-54.31253333 54.9696-142.97706667 0.656-197.6448l-6.63466667-6.63573334zM571.77386667 441.49333333L542.72 470.38506667l6.63466667 6.69013333c18.624 18.70506667 28.8096 43.55413333 28.69973333 69.95946667-0.08106667 26.37866667-10.43093333 51.17226667-29.136 69.7408l-121.51466667 120.7232c-18.65066667 18.51413333-43.3632 28.69866667-69.60426666 28.69866666h-0.3552c-26.40533333-0.08106667-51.17226667-10.43093333-69.79626667-29.1904l-6.608-6.63466666c-38.36586667-38.66666667-38.1472-101.33546667 0.464-139.72906667l74.21973333-73.70026667-28.86293333-29.05493333-74.21866667 73.70133333c-54.6688 54.31253333-54.9696 142.97706667-0.62933333 197.67253334l6.60906667 6.6624c26.3232 26.48746667 61.35786667 41.12426667 98.68586666 41.2608h0.49066667c37.13813333 0 72.11733333-14.41813333 98.4416-40.6048l121.51466667-120.7232c26.48746667-26.29653333 41.15093333-61.35786667 41.25973333-98.68586667 0.13653333-37.328-14.28053333-72.47253333-40.57706667-98.96l-6.66346666-6.7168z" p-id="12913"></path></svg>